<?xml version="1.0" standalone="no"?>
<!DOCTYPE svg PUBLIC "-//W3C//DTD SVG 20010904//EN"
 "http://www.w3.org/TR/2001/REC-SVG-20010904/DTD/svg10.dtd">
<svg version="1.0" xmlns="http://www.w3.org/2000/svg"
 width="151.000000pt" height="147.000000pt" viewBox="0 0 151.000000 147.000000"
 preserveAspectRatio="xMidYMid meet">

<g transform="translate(0.000000,147.000000) scale(0.100000,-0.100000)"
fill="#000000" stroke="none">
<path d="M0 735 l0 -735 755 0 755 0 0 735 0 735 -755 0 -755 0 0 -735z m813
598 c130 -74 137 -80 137 -118 0 -42 -34 -69 -43 -34 l-6 21 -33 -19 c-18 -11
-54 -33 -80 -48 -43 -24 -48 -31 -48 -61 0 -27 -4 -34 -19 -34 -16 0 -20 8
-23 37 -3 35 -8 40 -76 80 -69 41 -74 42 -79 24 -4 -17 -9 -19 -24 -10 -13 7
-19 21 -19 47 0 38 1 38 108 100 59 34 111 62 115 62 4 0 45 -21 90 -47z
m-308 -214 c104 -61 105 -62 105 -99 0 -42 -24 -62 -44 -35 -10 14 -20 11 -84
-26 l-72 -42 0 -89 c0 -86 1 -89 21 -83 34 11 20 -35 -17 -57 l-32 -19 -108
63 -109 63 -3 132 -3 131 103 60 c57 34 111 61 121 62 10 0 65 -27 122 -61z
m671 4 c55 -31 102 -62 107 -68 4 -5 6 -66 5 -134 l-3 -124 -112 -65 -112 -64
-30 18 c-37 22 -46 70 -11 59 19 -6 20 -2 20 83 l0 88 -73 42 c-81 47 -87 48
-87 27 0 -17 -2 -18 -24 -9 -11 4 -16 19 -16 44 0 38 1 39 103 99 56 33 109
60 118 61 9 0 61 -26 115 -57z m-341 -197 l110 -63 3 -123 c2 -83 -1 -127 -9
-136 -14 -17 -201 -124 -216 -124 -6 0 -59 27 -117 61 l-107 61 3 131 3 131
105 63 c58 34 107 62 110 63 3 0 55 -29 115 -64z m-587 -238 c9 -9 7 -14 -5
-23 -14 -11 -6 -19 62 -58 76 -44 80 -45 108 -30 26 13 31 13 44 0 13 -13 11
-17 -16 -33 -27 -16 -31 -24 -32 -64 -1 -25 -2 -63 -3 -85 -1 -36 1 -40 22
-37 33 3 26 -34 -11 -62 l-28 -20 -45 24 c-25 14 -75 43 -112 65 l-67 40 -3
132 -3 132 28 15 c34 19 46 19 61 4z m1013 -9 l29 -20 0 -125 0 -124 -37 -23
c-21 -13 -73 -43 -115 -66 -75 -41 -77 -42 -107 -26 -22 11 -31 23 -31 39 0
19 4 23 20 19 19 -5 20 0 20 84 0 88 0 89 -30 106 -18 11 -27 23 -23 32 7 19
17 19 52 1 26 -14 31 -13 97 26 38 23 71 43 73 44 2 2 -1 10 -7 17 -9 10 -8
17 0 25 17 17 26 15 59 -9z m-676 -185 c14 -6 14 -8 0 -23 -14 -16 -9 -21 58
-59 40 -23 77 -42 81 -42 5 0 42 19 82 42 68 39 73 43 58 59 -14 16 -14 18 5
24 11 3 34 -1 51 -10 l30 -16 0 -122 c0 -67 -4 -127 -8 -133 -11 -17 -202
-124 -220 -124 -9 1 -62 27 -117 59 l-100 59 -3 128 c-3 122 -2 130 19 147 23
18 38 21 64 11z"/>
<path d="M642 1286 c-81 -48 -82 -43 17 -100 l63 -37 71 39 c39 22 73 44 74
49 4 10 -126 93 -144 93 -4 0 -41 -20 -81 -44z"/>
<path d="M302 1091 c-34 -21 -65 -41 -68 -43 -6 -6 132 -88 148 -88 18 0 148
75 148 85 0 14 -124 85 -147 85 -10 -1 -46 -18 -81 -39z"/>
<path d="M200 912 l0 -88 74 -42 c40 -23 76 -42 80 -42 3 0 6 40 6 89 l0 90
-74 40 c-40 23 -76 41 -80 41 -3 0 -6 -40 -6 -88z"/>
<path d="M976 1088 c-68 -40 -69 -41 -47 -57 11 -9 46 -29 77 -46 l55 -30 75
40 c41 22 73 44 71 50 -5 14 -128 85 -147 85 -8 -1 -46 -19 -84 -42z"/>
<path d="M1155 956 l-70 -43 -3 -86 c-2 -59 1 -87 8 -87 20 0 148 79 154 96 8
20 8 128 0 148 -8 22 -9 21 -89 -28z"/>
<path d="M650 900 c-36 -22 -66 -44 -68 -49 -3 -8 127 -91 141 -91 13 0 147
83 147 90 0 8 -107 73 -140 84 -8 3 -44 -12 -80 -34z"/>
<path d="M830 769 c-36 -20 -71 -42 -77 -49 -15 -12 -18 -165 -5 -174 5 -3 42
14 83 37 l74 43 3 83 c2 46 -1 87 -5 91 -4 4 -37 -10 -73 -31z"/>
<path d="M542 713 l3 -86 73 -44 c41 -24 76 -43 78 -43 3 0 3 41 2 92 l-3 92
-65 38 c-36 21 -71 38 -78 38 -10 0 -12 -21 -10 -87z"/>
<path d="M200 521 l0 -88 71 -42 c40 -22 76 -41 80 -41 5 0 9 40 9 88 l0 88
-73 42 c-40 23 -76 42 -80 42 -4 0 -7 -40 -7 -89z"/>
<path d="M1155 566 l-70 -42 -3 -87 c-2 -60 1 -87 8 -87 16 0 136 68 149 84
14 17 10 168 -4 172 -5 1 -41 -17 -80 -40z"/>
<path d="M540 323 l0 -88 75 -42 c41 -24 77 -43 80 -43 3 0 5 40 5 90 l0 89
-68 41 c-38 22 -74 40 -80 40 -8 0 -12 -26 -12 -87z"/>
<path d="M829 377 c-90 -52 -89 -50 -89 -138 0 -43 4 -80 9 -84 5 -3 43 14 83
38 l73 43 3 87 c2 66 0 87 -10 87 -7 0 -38 -15 -69 -33z"/>
</g>
</svg>
